<svg width="2053" height="522" viewBox="0 0 2053 522" fill="none" xmlns="http://www.w3.org/2000/svg">
<path d="M220.219 112.023H282.133V388H220.219V278.43H109.477V388H47.3672V112.023H109.477V220.031H220.219V112.023ZM484.57 184.094H542.969V388H484.57V367.688C468.164 384.484 447.591 392.883 422.852 392.883C394.857 392.883 371.419 382.661 352.539 362.219C333.789 341.776 324.414 316.385 324.414 286.047C324.414 255.708 333.789 230.318 352.539 209.875C371.419 189.432 394.857 179.211 422.852 179.211C447.591 179.211 468.164 187.609 484.57 204.406V184.094ZM434.57 336.438C448.893 336.438 460.807 331.62 470.312 321.984C479.818 312.349 484.57 300.37 484.57 286.047C484.57 271.724 479.818 259.745 470.312 250.109C460.807 240.474 448.893 235.656 434.57 235.656C420.378 235.656 408.529 240.474 399.023 250.109C389.648 259.745 384.961 271.724 384.961 286.047C384.961 300.37 389.648 312.349 399.023 321.984C408.529 331.62 420.378 336.438 434.57 336.438ZM691.305 392.883C659.924 392.883 633.688 382.661 612.594 362.219C591.63 341.776 581.148 316.385 581.148 286.047C581.148 255.708 591.63 230.318 612.594 209.875C633.688 189.432 659.924 179.211 691.305 179.211C711.617 179.211 730.042 183.768 746.578 192.883C763.115 201.867 776.135 214.237 785.641 229.992L734.859 260.852C730.562 253.169 724.573 247.049 716.891 242.492C709.208 237.935 700.68 235.656 691.305 235.656C676.982 235.656 665.068 240.474 655.562 250.109C646.057 259.745 641.305 271.724 641.305 286.047C641.305 300.37 646.057 312.349 655.562 321.984C665.068 331.62 676.982 336.438 691.305 336.438C700.68 336.438 709.208 334.159 716.891 329.602C724.573 325.044 730.562 318.924 734.859 311.242L785.641 341.906C776.135 357.792 763.115 370.292 746.578 379.406C730.042 388.391 711.617 392.883 691.305 392.883ZM945.5 388L891.984 322.375L876.75 338.781V388H818.352V99.9141H876.75V260.07L943.938 184.094H1019.52L933.195 278.039L1022.26 388H945.5ZM1175.28 237.219H1122.94V312.023C1122.94 328.299 1131.47 336.438 1148.52 336.438C1156.99 336.438 1165.91 334.029 1175.28 329.211V384.094C1163.69 389.953 1150.67 392.883 1136.22 392.883C1112.26 392.883 1094.29 386.503 1082.31 373.742C1070.46 360.852 1064.54 343.469 1064.54 321.594V237.219H1033.68V184.094H1064.54V133.508H1122.94V184.094H1175.28V237.219ZM1307.99 392.883C1276.61 392.883 1250.38 382.661 1229.28 362.219C1208.32 341.776 1197.84 316.385 1197.84 286.047C1197.84 255.708 1208.32 230.318 1229.28 209.875C1250.38 189.432 1276.61 179.211 1307.99 179.211C1328.7 179.211 1347.45 183.898 1364.24 193.273C1381.04 202.518 1394.19 215.344 1403.7 231.75C1413.2 248.026 1417.95 266.125 1417.95 286.047C1417.95 305.969 1413.2 324.133 1403.7 340.539C1394.19 356.815 1381.04 369.641 1364.24 379.016C1347.45 388.26 1328.7 392.883 1307.99 392.883ZM1272.25 321.984C1281.76 331.62 1293.67 336.438 1307.99 336.438C1322.32 336.438 1334.23 331.62 1343.73 321.984C1353.24 312.349 1357.99 300.37 1357.99 286.047C1357.99 271.724 1353.24 259.745 1343.73 250.109C1334.23 240.474 1322.32 235.656 1307.99 235.656C1293.67 235.656 1281.76 240.474 1272.25 250.109C1262.74 259.745 1257.99 271.724 1257.99 286.047C1257.99 300.37 1262.74 312.349 1272.25 321.984ZM1576.45 179.211C1604.57 179.211 1628.01 189.432 1646.76 209.875C1665.51 230.188 1674.88 255.578 1674.88 286.047C1674.88 316.516 1665.51 341.971 1646.76 362.414C1628.01 382.727 1604.57 392.883 1576.45 392.883C1551.84 392.883 1531.33 384.484 1514.92 367.688V463.977H1456.52V184.094H1514.92V204.406C1531.33 187.609 1551.84 179.211 1576.45 179.211ZM1529.18 321.984C1538.68 331.62 1550.6 336.438 1564.92 336.438C1579.24 336.438 1591.16 331.62 1600.66 321.984C1610.17 312.349 1614.92 300.37 1614.92 286.047C1614.92 271.724 1610.17 259.745 1600.66 250.109C1591.16 240.474 1579.24 235.656 1564.92 235.656C1550.6 235.656 1538.68 240.474 1529.18 250.109C1519.67 259.745 1514.92 271.724 1514.92 286.047C1514.92 300.37 1519.67 312.349 1529.18 321.984ZM1743.14 157.922C1732.98 157.922 1724.46 154.536 1717.55 147.766C1710.65 140.865 1707.2 132.271 1707.2 121.984C1707.2 111.828 1710.65 103.365 1717.55 96.5938C1724.46 89.8229 1732.98 86.4375 1743.14 86.4375C1753.56 86.4375 1762.22 89.8229 1769.12 96.5938C1776.15 103.365 1779.66 111.828 1779.66 121.984C1779.66 132.271 1776.15 140.865 1769.12 147.766C1762.22 154.536 1753.56 157.922 1743.14 157.922ZM1714.04 388V184.094H1772.44V388H1714.04ZM1971.55 184.094H2029.95V388H1971.55V367.688C1955.15 384.484 1934.58 392.883 1909.84 392.883C1881.84 392.883 1858.4 382.661 1839.52 362.219C1820.77 341.776 1811.4 316.385 1811.4 286.047C1811.4 255.708 1820.77 230.318 1839.52 209.875C1858.4 189.432 1881.84 179.211 1909.84 179.211C1934.58 179.211 1955.15 187.609 1971.55 204.406V184.094ZM1921.55 336.438C1935.88 336.438 1947.79 331.62 1957.3 321.984C1966.8 312.349 1971.55 300.37 1971.55 286.047C1971.55 271.724 1966.8 259.745 1957.3 250.109C1947.79 240.474 1935.88 235.656 1921.55 235.656C1907.36 235.656 1895.51 240.474 1886.01 250.109C1876.63 259.745 1871.95 271.724 1871.95 286.047C1871.95 300.37 1876.63 312.349 1886.01 321.984C1895.51 331.62 1907.36 336.438 1921.55 336.438Z" fill="#95DB7B"/>
<path d="M199.219 112.023H261.133V388H199.219V278.43H88.4766V388H26.3672V112.023H88.4766V220.031H199.219V112.023ZM463.57 184.094H521.969V388H463.57V367.688C447.164 384.484 426.591 392.883 401.852 392.883C373.857 392.883 350.419 382.661 331.539 362.219C312.789 341.776 303.414 316.385 303.414 286.047C303.414 255.708 312.789 230.318 331.539 209.875C350.419 189.432 373.857 179.211 401.852 179.211C426.591 179.211 447.164 187.609 463.57 204.406V184.094ZM413.57 336.438C427.893 336.438 439.807 331.62 449.312 321.984C458.818 312.349 463.57 300.37 463.57 286.047C463.57 271.724 458.818 259.745 449.312 250.109C439.807 240.474 427.893 235.656 413.57 235.656C399.378 235.656 387.529 240.474 378.023 250.109C368.648 259.745 363.961 271.724 363.961 286.047C363.961 300.37 368.648 312.349 378.023 321.984C387.529 331.62 399.378 336.438 413.57 336.438ZM670.305 392.883C638.924 392.883 612.688 382.661 591.594 362.219C570.63 341.776 560.148 316.385 560.148 286.047C560.148 255.708 570.63 230.318 591.594 209.875C612.688 189.432 638.924 179.211 670.305 179.211C690.617 179.211 709.042 183.768 725.578 192.883C742.115 201.867 755.135 214.237 764.641 229.992L713.859 260.852C709.562 253.169 703.573 247.049 695.891 242.492C688.208 237.935 679.68 235.656 670.305 235.656C655.982 235.656 644.068 240.474 634.562 250.109C625.057 259.745 620.305 271.724 620.305 286.047C620.305 300.37 625.057 312.349 634.562 321.984C644.068 331.62 655.982 336.438 670.305 336.438C679.68 336.438 688.208 334.159 695.891 329.602C703.573 325.044 709.562 318.924 713.859 311.242L764.641 341.906C755.135 357.792 742.115 370.292 725.578 379.406C709.042 388.391 690.617 392.883 670.305 392.883ZM924.5 388L870.984 322.375L855.75 338.781V388H797.352V99.9141H855.75V260.07L922.938 184.094H998.523L912.195 278.039L1001.26 388H924.5ZM1154.28 237.219H1101.94V312.023C1101.94 328.299 1110.47 336.438 1127.52 336.438C1135.99 336.438 1144.91 334.029 1154.28 329.211V384.094C1142.69 389.953 1129.67 392.883 1115.22 392.883C1091.26 392.883 1073.29 386.503 1061.31 373.742C1049.46 360.852 1043.54 343.469 1043.54 321.594V237.219H1012.68V184.094H1043.54V133.508H1101.94V184.094H1154.28V237.219ZM1286.99 392.883C1255.61 392.883 1229.38 382.661 1208.28 362.219C1187.32 341.776 1176.84 316.385 1176.84 286.047C1176.84 255.708 1187.32 230.318 1208.28 209.875C1229.38 189.432 1255.61 179.211 1286.99 179.211C1307.7 179.211 1326.45 183.898 1343.24 193.273C1360.04 202.518 1373.19 215.344 1382.7 231.75C1392.2 248.026 1396.95 266.125 1396.95 286.047C1396.95 305.969 1392.2 324.133 1382.7 340.539C1373.19 356.815 1360.04 369.641 1343.24 379.016C1326.45 388.26 1307.7 392.883 1286.99 392.883ZM1251.25 321.984C1260.76 331.62 1272.67 336.438 1286.99 336.438C1301.32 336.438 1313.23 331.62 1322.73 321.984C1332.24 312.349 1336.99 300.37 1336.99 286.047C1336.99 271.724 1332.24 259.745 1322.73 250.109C1313.23 240.474 1301.32 235.656 1286.99 235.656C1272.67 235.656 1260.76 240.474 1251.25 250.109C1241.74 259.745 1236.99 271.724 1236.99 286.047C1236.99 300.37 1241.74 312.349 1251.25 321.984ZM1555.45 179.211C1583.57 179.211 1607.01 189.432 1625.76 209.875C1644.51 230.188 1653.88 255.578 1653.88 286.047C1653.88 316.516 1644.51 341.971 1625.76 362.414C1607.01 382.727 1583.57 392.883 1555.45 392.883C1530.84 392.883 1510.33 384.484 1493.92 367.688V463.977H1435.52V184.094H1493.92V204.406C1510.33 187.609 1530.84 179.211 1555.45 179.211ZM1508.18 321.984C1517.68 331.62 1529.6 336.438 1543.92 336.438C1558.24 336.438 1570.16 331.62 1579.66 321.984C1589.17 312.349 1593.92 300.37 1593.92 286.047C1593.92 271.724 1589.17 259.745 1579.66 250.109C1570.16 240.474 1558.24 235.656 1543.92 235.656C1529.6 235.656 1517.68 240.474 1508.18 250.109C1498.67 259.745 1493.92 271.724 1493.92 286.047C1493.92 300.37 1498.67 312.349 1508.18 321.984ZM1722.14 157.922C1711.98 157.922 1703.46 154.536 1696.55 147.766C1689.65 140.865 1686.2 132.271 1686.2 121.984C1686.2 111.828 1689.65 103.365 1696.55 96.5938C1703.46 89.8229 1711.98 86.4375 1722.14 86.4375C1732.56 86.4375 1741.22 89.8229 1748.12 96.5938C1755.15 103.365 1758.66 111.828 1758.66 121.984C1758.66 132.271 1755.15 140.865 1748.12 147.766C1741.22 154.536 1732.56 157.922 1722.14 157.922ZM1693.04 388V184.094H1751.44V388H1693.04ZM1950.55 184.094H2008.95V388H1950.55V367.688C1934.15 384.484 1913.58 392.883 1888.84 392.883C1860.84 392.883 1837.4 382.661 1818.52 362.219C1799.77 341.776 1790.4 316.385 1790.4 286.047C1790.4 255.708 1799.77 230.318 1818.52 209.875C1837.4 189.432 1860.84 179.211 1888.84 179.211C1913.58 179.211 1934.15 187.609 1950.55 204.406V184.094ZM1900.55 336.438C1914.88 336.438 1926.79 331.62 1936.3 321.984C1945.8 312.349 1950.55 300.37 1950.55 286.047C1950.55 271.724 1945.8 259.745 1936.3 250.109C1926.79 240.474 1914.88 235.656 1900.55 235.656C1886.36 235.656 1874.51 240.474 1865.01 250.109C1855.63 259.745 1850.95 271.724 1850.95 286.047C1850.95 300.37 1855.63 312.349 1865.01 321.984C1874.51 331.62 1886.36 336.438 1900.55 336.438Z" fill="url(#paint0_linear_49_11)"/>
<defs>
<linearGradient id="paint0_linear_49_11" x1="1016" y1="197.224" x2="1152.38" y2="511.699" gradientUnits="userSpaceOnUse">
<stop stop-color="#2D7D26"/>
<stop offset="1" stop-color="#2D7132"/>
</linearGradient>
</defs>
</svg>
